# xmcd
#
# Track frame offsets:
#	150
#	10797
#	24519
#	36042
#	47792
#	61122
#	71972
#	88027
#	101085
#	114062
#	125725
#	139090
#	151940
#	167375
#	178759
#	191760
#	203532
#	219195
#	229777
#	249060
#	261182
#	275085
#	290015
#
# Disc length: 4069
#
# Revision: 4
# Processed by: cddbd v1.5.1PL0 Copyright (c) Steve Scherf et al.
# Submitted via: audiograbber 1.82.02
# Normalized: r3:DSETVAR1
#
DISCID=400fe317
DTITLE=Various Artist - Beach Music Anthology,  Volume 1 [CD2]
DYEAR=1996
DGENRE=Soul
TTITLE0=The Ravens - Green Eyes (1955)
TTITLE1=Billy Stewart - I Do Love You (1965)
TTITLE2=Bobby Moore and Rhythm Aces - Searching For My Baby (1966)
TTITLE3=Tony Clarke - The Entertainer (1965)
TTITLE4=Radiants - Ain't No Big Thing (1965)
TTITLE5=Ella James - Tell Mama (1968)
TTITLE6=The Dells - There Is (1968)
TTITLE7=Fantastics - Something Old Something New (1968)
TTITLE8=Fontella Bass - Rescue Me (1965)
TTITLE9=Billy Stewart - Fat Boy (1962)
TTITLE10=Cash McCall - That Lucky Old Sun (1966)
TTITLE11=Arthur Alexander - Anna (Go With Him) (1962)
TTITLE12=Chuck Jackson - Any Day Now (My Wild Beautiful Bird) (1962)
TTITLE13=Bob Meyer and Rivieras - Behold (1964)
TTITLE14=Etta James - Pushover (1963)
TTITLE15=Radiants - Voice Your Choice (1965)
TTITLE16=The Dells - Wear It On Our Face (1968)
TTITLE17=The Swinging Medallions - Double Shot Of My Baby's Love (1966)
TTITLE18=Billy Stewart - Summertime (1966)
TTITLE19=Fontella Bass and Bobby McClure - You'll Miss Me (When I'm Gone) (1965)
TTITLE20=The Corsairs - Smoky Places (1962)
TTITLE21=Billy Stewart - Sitting In The Park (1965)
TTITLE22=Rockin' Louie and Mamma Jammers - Club Savoy (1980)
EXTD=
EXTT0=
EXTT1=
EXTT2=
EXTT3=
EXTT4=
EXTT5=
EXTT6=
EXTT7=
EXTT8=
EXTT9=
EXTT10=
EXTT11=
EXTT12=
EXTT13=
EXTT14=
EXTT15=
EXTT16=
EXTT17=
EXTT18=
EXTT19=
EXTT20=
EXTT21=
EXTT22=
PLAYORDER=
